<svg width="24" height="20" viewBox="0 0 24 20" fill="none" xmlns="http://www.w3.org/2000/svg">
<path d="M12.1406 0.390625C5.73056 0.390625 0.515625 4.73641 0.515625 10.0781C0.515625 15.4198 5.73056 19.7656 12.1406 19.7656C18.5507 19.7656 23.7656 15.4198 23.7656 10.0781C23.7656 4.73641 18.5507 0.390625 12.1406 0.390625ZM19.8267 4.85805C21.2097 6.26609 22.0471 8.05949 22.069 10.0125C21.7416 9.95484 18.4588 9.39996 15.1548 9.74621C14.8852 9.19773 14.6307 8.71523 14.2822 8.12066C17.9535 6.87156 19.6174 5.09402 19.8267 4.85805ZM18.7229 3.90117C18.5443 4.11316 17.0496 5.78734 13.5187 6.8902C11.8916 4.39895 10.0882 2.35238 9.81375 2.04613C12.9626 1.41359 16.2809 2.09574 18.7229 3.90117ZM7.91911 2.60234C8.18091 2.90152 9.95527 4.95062 11.6005 7.38785C6.95583 8.4157 2.86491 8.4009 2.42081 8.39602C3.06469 5.82832 5.14116 3.69426 7.91911 2.60234ZM2.21109 10.0907C2.21109 10.0061 2.21311 9.92191 2.21616 9.83789C2.65059 9.84531 7.46241 9.89699 12.4211 8.66031C12.7054 9.12391 12.9769 9.59449 13.2262 10.0646C9.63558 10.9073 6.37331 13.3273 4.76377 15.6234C3.17784 14.1564 2.21109 12.216 2.21109 10.0907ZM6.0458 16.6186C7.083 14.8517 9.89789 12.5709 13.9011 11.4328C15.2951 14.4517 15.8716 16.9818 16.0193 17.7077C12.8265 18.8411 8.98734 18.5301 6.0458 16.6186ZM17.6886 16.9502C17.5868 16.4468 17.0583 14.0245 15.7596 11.0505C18.8712 10.6354 21.6049 11.3148 21.9446 11.4042C21.502 13.7066 19.9162 15.695 17.6886 16.9502Z" fill="#F8F9FA"/>
</svg>
