<svg width="25" height="18" viewBox="0 0 25 18" fill="none" xmlns="http://www.w3.org/2000/svg">
<path d="M5.41902 17.5782H0.443304V5.89463H5.41902V17.5782ZM2.92848 4.30088C1.33741 4.30088 0.046875 3.33994 0.046875 2.17979C0.046875 1.62252 0.350472 1.08808 0.890878 0.694032C1.43128 0.299986 2.16423 0.0786133 2.92848 0.0786133C3.69273 0.0786133 4.42568 0.299986 4.96609 0.694032C5.50649 1.08808 5.81009 1.62252 5.81009 2.17979C5.81009 3.33994 4.51902 4.30088 2.92848 4.30088ZM24.0415 17.5782H19.0765V11.8907C19.0765 10.5353 19.039 8.79697 16.4896 8.79697C13.9026 8.79697 13.5062 10.2696 13.5062 11.7931V17.5782H8.5358V5.89463H13.3079V7.48838H13.3776C14.0419 6.57041 15.6646 5.60166 18.0854 5.60166C23.1212 5.60166 24.0469 8.01963 24.0469 11.1603V17.5782H24.0415Z" fill="#F8F9FA"/>
</svg>
