<svg width="25" height="18" viewBox="0 0 25 18" fill="none" xmlns="http://www.w3.org/2000/svg">
<path d="M22.4861 5.0045C22.5013 5.18216 22.5013 5.35985 22.5013 5.53751C22.5013 10.9563 17.5521 17.1999 8.50642 17.1999C5.71961 17.1999 3.1308 16.5273 0.953125 15.3599C1.34908 15.3979 1.72975 15.4106 2.14094 15.4106C4.44039 15.4106 6.55717 14.7634 8.24753 13.6593C6.08509 13.6213 4.27291 12.4411 3.64853 10.8167C3.95312 10.8547 4.25767 10.8801 4.5775 10.8801C5.01911 10.8801 5.46077 10.8293 5.87191 10.7406C3.61811 10.3598 1.9277 8.71009 1.9277 6.71771V6.66696C2.5825 6.97153 3.34398 7.16188 4.15103 7.18724C2.82616 6.45118 1.95817 5.19485 1.95817 3.77353C1.95817 3.01212 2.20178 2.31415 2.6282 1.70501C5.04953 4.19231 8.68914 5.81665 12.7703 5.99435C12.6942 5.68978 12.6485 5.37255 12.6485 5.05528C12.6485 2.79638 14.8414 0.956299 17.5673 0.956299C18.9835 0.956299 20.2627 1.45122 21.1612 2.25071C22.2728 2.07306 23.3388 1.7304 24.283 1.26087C23.9175 2.21267 23.1408 3.01216 22.1206 3.51974C23.1104 3.43095 24.0698 3.20247 24.953 2.88524C24.2831 3.69739 23.4455 4.42071 22.4861 5.0045Z" fill="#F8F9FA"/>
</svg>
